<svg id="Layer_1" xmlns="http://www.w3.org/2000/svg" xmlns:xlink="http://www.w3.org/1999/xlink" x="0px" y="0px"
	 width="59" height="35" viewBox="0 0 599.53 355.01" enable-background="new 0 0 599.53 355.01" xml:space="preserve">
<g>
	<defs>
		<rect id="SVGID_1_" width="59" height="35"/>
	</defs>
	<path clip-path="url(#SVGID_2_)" fill="#0000ff" d="M593.88,214.81c-3.77-6.03-8.93-9.04-15.45-9.04c-0.05,0-0.098,0-0.147,0.001
		c-6.215,0.03-12.085,2.882-16.175,7.562c-2.288,2.616-4.52,5.14-6.697,7.567c-12.521,14-23.17,24.91-31.95,32.73
		c-13.82,12.319-25.75,18.47-35.8,18.47c-14.58,0-21.86-10.05-21.86-30.15c0-14.06,4.771-42.96,14.32-86.68
		c3.09-14.34,5.75-27.43,7.98-39.29c5.739-30.54,8.609-52.87,8.609-66.98c0-26.089-10.43-41.77-31.28-47.02
		C460.19,0.661,454.28,0,447.71,0c-23,0-47.49,10.5-73.47,31.47c-4.11,3.31-8.26,6.901-12.45,10.74
		c-14.88,13.661-29.11,31.29-42.689,52.88c-8.421,13.393-16.587,28.309-24.503,44.752c-2.277,4.73-9.438,2.253-8.298-2.87
		c0.04-0.181,0.08-0.361,0.121-0.542c4.72-20.87,8.27-38.54,10.66-53.019c2.44-14.811,3.66-26.281,3.66-34.411
		c0-16.589-3.65-28.89-10.93-36.94c-5.33-5.87-13.41-9.6-24.25-11.18C261.58,0.29,257.23,0,252.5,0c-17.6,0-36.31,6.67-56.15,19.98
		c-19.86,13.32-39.2,33.54-58.04,60.67c-13.369,19.258-25.412,41.547-36.129,66.869c-2.026,4.788-9.205,2.797-8.457-2.348
		c1.083-7.441,2.252-14.252,3.506-20.431c3.02-14.81,7.03-32.28,12.06-52.38c7.54-28.13,11.31-46.22,11.31-54.27
		c0-7.03-2.02-11.8-6.03-14.32C110.54,1.26,103.51,0,93.46,0C74.87,0,60.42,3.39,50.12,10.18c-10.3,6.78-17.71,17.46-22.23,32.03
		C9.29,101,0,163.07,0,228.38c0,44.22,3.89,76.39,11.68,96.479c7.79,20.101,21.23,30.15,40.33,30.15c15.57,0,27-4.15,34.29-12.44
		c7.28-8.29,13.69-24.238,19.22-47.859c6.53-27.13,15.19-54.761,26.01-82.91c10.8-28.139,21.97-51.25,33.54-69.34
		c11.55-18.089,21.1-27.14,28.64-27.14c5.52,0,8.29,4.03,8.29,12.06c0,9.88-1.95,30.42-5.82,61.63c-0.07,0.56-0.14,1.12-0.21,1.689
		c-5.03,36.172-7.54,63.811-7.54,82.9c0,22.62,4.15,41.84,12.44,57.66c4.28,8.17,9.67,14.24,16.17,18.189
		c6.07,3.712,13.12,5.561,21.14,5.561c4.06,0,7.84-0.26,11.34-0.771c10.36-1.52,18.26-5.279,23.71-11.29
		c7.27-8.029,13.68-24.118,19.22-48.239c4.97-20.2,10.92-39.761,17.86-58.66c2.29-6.24,4.68-12.41,7.18-18.51
		c1.42-3.45,2.87-6.86,4.35-10.261c12.061-27.63,24.12-49.869,36.181-66.709c12.06-16.83,21.35-25.25,27.89-25.25
		c5.52,0,8.29,4.03,8.29,12.06c0,12.06-3.28,33.92-9.8,65.58c-7.04,36.17-10.55,61.31-10.55,75.37c0,28.149,6.52,49.63,19.59,64.439
		c4.381,4.979,9.477,9.119,15.28,12.423c3.967,2.259,8.252,3.889,12.663,5.057c10.697,2.832,22.107,4.398,34.236,4.711
		c0.03-0.011,0.05,0,0.07,0c1.46,0.029,2.92,0.05,4.399,0.05c54.76,0,96.971-22.86,126.63-68.59c0.38-0.58,0.75-1.16,1.11-1.75
		c7.79-12.69,11.7-27.69,11.7-44.98C599.53,229.13,597.65,220.84,593.88,214.81"/>
</g>
</svg>
